<svg xmlns="http://www.w3.org/2000/svg" xmlns:xlink="http://www.w3.org/1999/xlink" width="700" zoomAndPan="magnify" viewBox="0 0 525 449.999984" height="600" preserveAspectRatio="xMidYMid meet" version="1.0"><defs><g/></defs><g fill="#000000" fill-opacity="1"><g transform="translate(117.615843, 262.494808)"><g><path d="M 24.859375 -29.734375 C 24.660156 -27.742188 24.5625 -25.953125 24.5625 -24.359375 C 24.5625 -22.960938 24.609375 -21.816406 24.703125 -20.921875 L 23.734375 -20.921875 C 23.503906 -23.078125 23.222656 -24.675781 22.890625 -25.71875 C 22.554688 -26.769531 21.96875 -27.539062 21.125 -28.03125 C 20.28125 -28.519531 18.992188 -28.765625 17.265625 -28.765625 L 15 -28.765625 L 15 -4.875 C 15 -3.695312 15.109375 -2.84375 15.328125 -2.3125 C 15.554688 -1.78125 15.945312 -1.414062 16.5 -1.21875 C 17.0625 -1.019531 17.972656 -0.894531 19.234375 -0.84375 L 19.234375 0 C 17.773438 -0.0820312 15.71875 -0.125 13.0625 -0.125 C 10.257812 -0.125 8.1875 -0.0820312 6.84375 0 L 6.84375 -0.84375 C 8.101562 -0.894531 9.015625 -1.019531 9.578125 -1.21875 C 10.140625 -1.414062 10.53125 -1.78125 10.75 -2.3125 C 10.976562 -2.84375 11.09375 -3.695312 11.09375 -4.875 L 11.09375 -28.765625 L 8.8125 -28.765625 C 7.082031 -28.765625 5.796875 -28.519531 4.953125 -28.03125 C 4.117188 -27.539062 3.53125 -26.769531 3.1875 -25.71875 C 2.851562 -24.675781 2.578125 -23.078125 2.359375 -20.921875 L 1.390625 -20.921875 C 1.472656 -21.816406 1.515625 -22.960938 1.515625 -24.359375 C 1.515625 -25.953125 1.414062 -27.742188 1.21875 -29.734375 C 3.539062 -29.648438 7.488281 -29.609375 13.0625 -29.609375 C 18.601562 -29.609375 22.535156 -29.648438 24.859375 -29.734375 Z M 24.859375 -29.734375 "/></g></g><g transform="translate(143.697841, 262.494808)"><g><path d="M 30.03125 -28.890625 C 29.019531 -28.835938 28.28125 -28.726562 27.8125 -28.5625 C 27.351562 -28.394531 27.039062 -28.070312 26.875 -27.59375 C 26.707031 -27.113281 26.625 -26.34375 26.625 -25.28125 L 26.625 -4.453125 C 26.625 -3.390625 26.707031 -2.617188 26.875 -2.140625 C 27.039062 -1.660156 27.351562 -1.335938 27.8125 -1.171875 C 28.28125 -1.003906 29.019531 -0.894531 30.03125 -0.84375 L 30.03125 0 C 28.851562 -0.0820312 27.0625 -0.125 24.65625 -0.125 C 22.382812 -0.125 20.601562 -0.0820312 19.3125 0 L 19.3125 -0.84375 C 20.320312 -0.894531 21.054688 -1.003906 21.515625 -1.171875 C 21.984375 -1.335938 22.300781 -1.660156 22.46875 -2.140625 C 22.632812 -2.617188 22.71875 -3.390625 22.71875 -4.453125 L 22.71875 -14.53125 L 9.078125 -14.53125 L 9.078125 -4.453125 C 9.078125 -3.390625 9.160156 -2.617188 9.328125 -2.140625 C 9.492188 -1.660156 9.804688 -1.335938 10.265625 -1.171875 C 10.734375 -1.003906 11.46875 -0.894531 12.46875 -0.84375 L 12.46875 0 C 11.1875 -0.0820312 9.410156 -0.125 7.140625 -0.125 C 4.734375 -0.125 2.941406 -0.0820312 1.765625 0 L 1.765625 -0.84375 C 2.773438 -0.894531 3.507812 -1.003906 3.96875 -1.171875 C 4.425781 -1.335938 4.738281 -1.660156 4.90625 -2.140625 C 5.082031 -2.617188 5.171875 -3.390625 5.171875 -4.453125 L 5.171875 -25.28125 C 5.171875 -26.34375 5.082031 -27.113281 4.90625 -27.59375 C 4.738281 -28.070312 4.425781 -28.394531 3.96875 -28.5625 C 3.507812 -28.726562 2.773438 -28.835938 1.765625 -28.890625 L 1.765625 -29.734375 C 2.941406 -29.648438 4.734375 -29.609375 7.140625 -29.609375 C 9.378906 -29.609375 11.15625 -29.648438 12.46875 -29.734375 L 12.46875 -28.890625 C 11.46875 -28.835938 10.734375 -28.726562 10.265625 -28.5625 C 9.804688 -28.394531 9.492188 -28.070312 9.328125 -27.59375 C 9.160156 -27.113281 9.078125 -26.34375 9.078125 -25.28125 L 9.078125 -15.375 L 22.71875 -15.375 L 22.71875 -25.28125 C 22.71875 -26.34375 22.632812 -27.113281 22.46875 -27.59375 C 22.300781 -28.070312 21.984375 -28.394531 21.515625 -28.5625 C 21.054688 -28.726562 20.320312 -28.835938 19.3125 -28.890625 L 19.3125 -29.734375 C 20.601562 -29.648438 22.382812 -29.609375 24.65625 -29.609375 C 27.0625 -29.609375 28.851562 -29.648438 30.03125 -29.734375 Z M 30.03125 -28.890625 "/></g></g><g transform="translate(175.491838, 262.494808)"><g><path d="M 23.265625 -5.375 C 23.265625 -3.78125 23.363281 -1.988281 23.5625 0 C 21.65625 -0.0820312 18.445312 -0.125 13.9375 -0.125 C 8.5625 -0.125 4.503906 -0.0820312 1.765625 0 L 1.765625 -0.84375 C 2.773438 -0.894531 3.507812 -1.003906 3.96875 -1.171875 C 4.425781 -1.335938 4.738281 -1.660156 4.90625 -2.140625 C 5.082031 -2.617188 5.171875 -3.390625 5.171875 -4.453125 L 5.171875 -25.28125 C 5.171875 -26.34375 5.082031 -27.113281 4.90625 -27.59375 C 4.738281 -28.070312 4.425781 -28.394531 3.96875 -28.5625 C 3.507812 -28.726562 2.773438 -28.835938 1.765625 -28.890625 L 1.765625 -29.734375 C 4.503906 -29.648438 8.5625 -29.609375 13.9375 -29.609375 C 18.0625 -29.609375 20.988281 -29.648438 22.71875 -29.734375 C 22.519531 -27.890625 22.421875 -26.238281 22.421875 -24.78125 C 22.421875 -23.6875 22.460938 -22.816406 22.546875 -22.171875 L 21.59375 -22.171875 C 21.394531 -23.992188 21.140625 -25.34375 20.828125 -26.21875 C 20.523438 -27.101562 20.007812 -27.75 19.28125 -28.15625 C 18.550781 -28.5625 17.441406 -28.765625 15.953125 -28.765625 L 12.46875 -28.765625 C 11.46875 -28.765625 10.734375 -28.6875 10.265625 -28.53125 C 9.804688 -28.382812 9.492188 -28.070312 9.328125 -27.59375 C 9.160156 -27.113281 9.078125 -26.34375 9.078125 -25.28125 L 9.078125 -15.375 L 11.84375 -15.375 C 12.820312 -15.375 13.578125 -15.601562 14.109375 -16.0625 C 14.640625 -16.53125 14.992188 -17.078125 15.171875 -17.703125 C 15.359375 -18.328125 15.507812 -19.117188 15.625 -20.078125 L 15.75 -20.921875 L 16.71875 -20.921875 C 16.632812 -19.742188 16.59375 -18.425781 16.59375 -16.96875 L 16.59375 -14.953125 C 16.59375 -13.523438 16.675781 -11.535156 16.84375 -8.984375 L 15.875 -8.984375 C 15.84375 -9.179688 15.753906 -9.859375 15.609375 -11.015625 C 15.472656 -12.179688 15.09375 -13.054688 14.46875 -13.640625 C 13.84375 -14.234375 12.96875 -14.53125 11.84375 -14.53125 L 9.078125 -14.53125 L 9.078125 -4.453125 C 9.078125 -3.390625 9.160156 -2.617188 9.328125 -2.140625 C 9.492188 -1.660156 9.804688 -1.34375 10.265625 -1.1875 C 10.734375 -1.039062 11.46875 -0.96875 12.46875 -0.96875 L 15.546875 -0.96875 C 17.273438 -0.96875 18.59375 -1.195312 19.5 -1.65625 C 20.414062 -2.125 21.082031 -2.867188 21.5 -3.890625 C 21.925781 -4.910156 22.234375 -6.414062 22.421875 -8.40625 L 23.390625 -8.40625 C 23.304688 -7.644531 23.265625 -6.632812 23.265625 -5.375 Z M 23.265625 -5.375 "/></g></g><g transform="translate(201.069836, 262.494808)"><g><path d="M 34.8125 -28.890625 C 33.8125 -28.835938 33.078125 -28.726562 32.609375 -28.5625 C 32.148438 -28.394531 31.835938 -28.070312 31.671875 -27.59375 C 31.503906 -27.113281 31.421875 -26.34375 31.421875 -25.28125 L 31.421875 -4.453125 C 31.421875 -3.390625 31.503906 -2.617188 31.671875 -2.140625 C 31.835938 -1.660156 32.148438 -1.335938 32.609375 -1.171875 C 33.078125 -1.003906 33.8125 -0.894531 34.8125 -0.84375 L 34.8125 0 C 33.53125 -0.0820312 31.753906 -0.125 29.484375 -0.125 C 27.078125 -0.125 25.285156 -0.0820312 24.109375 0 L 24.109375 -0.84375 C 25.117188 -0.894531 25.851562 -1.003906 26.3125 -1.171875 C 26.769531 -1.335938 27.082031 -1.660156 27.25 -2.140625 C 27.425781 -2.617188 27.515625 -3.390625 27.515625 -4.453125 L 27.515625 -26.96875 L 17.390625 0.203125 L 16.71875 0.203125 L 6.125 -27.046875 L 6.125 -4.875 C 6.125 -3.78125 6.210938 -2.96875 6.390625 -2.4375 C 6.578125 -1.90625 6.9375 -1.519531 7.46875 -1.28125 C 8.007812 -1.039062 8.835938 -0.894531 9.953125 -0.84375 L 9.953125 0 C 8.941406 -0.0820312 7.515625 -0.125 5.671875 -0.125 C 3.992188 -0.125 2.691406 -0.0820312 1.765625 0 L 1.765625 -0.84375 C 2.742188 -0.894531 3.46875 -1.039062 3.9375 -1.28125 C 4.414062 -1.519531 4.738281 -1.910156 4.90625 -2.453125 C 5.082031 -3.003906 5.171875 -3.8125 5.171875 -4.875 L 5.171875 -25.28125 C 5.171875 -26.34375 5.082031 -27.113281 4.90625 -27.59375 C 4.738281 -28.070312 4.425781 -28.394531 3.96875 -28.5625 C 3.507812 -28.726562 2.773438 -28.835938 1.765625 -28.890625 L 1.765625 -29.734375 C 2.691406 -29.648438 3.992188 -29.609375 5.671875 -29.609375 C 7.128906 -29.609375 8.316406 -29.648438 9.234375 -29.734375 L 18.484375 -5.421875 L 27.515625 -29.609375 L 29.484375 -29.609375 C 31.753906 -29.609375 33.53125 -29.648438 34.8125 -29.734375 Z M 34.8125 -28.890625 "/></g></g><g transform="translate(237.651833, 262.494808)"><g><path d="M 12.46875 -28.890625 C 11.46875 -28.835938 10.734375 -28.726562 10.265625 -28.5625 C 9.804688 -28.394531 9.492188 -28.070312 9.328125 -27.59375 C 9.160156 -27.113281 9.078125 -26.34375 9.078125 -25.28125 L 9.078125 -4.453125 C 9.078125 -3.390625 9.160156 -2.617188 9.328125 -2.140625 C 9.492188 -1.660156 9.804688 -1.335938 10.265625 -1.171875 C 10.734375 -1.003906 11.46875 -0.894531 12.46875 -0.84375 L 12.46875 0 C 11.1875 -0.0820312 9.410156 -0.125 7.140625 -0.125 C 4.734375 -0.125 2.941406 -0.0820312 1.765625 0 L 1.765625 -0.84375 C 2.773438 -0.894531 3.507812 -1.003906 3.96875 -1.171875 C 4.425781 -1.335938 4.738281 -1.660156 4.90625 -2.140625 C 5.082031 -2.617188 5.171875 -3.390625 5.171875 -4.453125 L 5.171875 -25.28125 C 5.171875 -26.34375 5.082031 -27.113281 4.90625 -27.59375 C 4.738281 -28.070312 4.425781 -28.394531 3.96875 -28.5625 C 3.507812 -28.726562 2.773438 -28.835938 1.765625 -28.890625 L 1.765625 -29.734375 C 2.941406 -29.648438 4.734375 -29.609375 7.140625 -29.609375 C 9.378906 -29.609375 11.15625 -29.648438 12.46875 -29.734375 Z M 12.46875 -28.890625 "/></g></g></g><g fill="#000000" fill-opacity="1"><g transform="translate(251.889832, 262.494808)"><g><path d="M 10.75 -30.203125 C 11.976562 -30.203125 12.945312 -30.066406 13.65625 -29.796875 C 14.375 -29.535156 15.113281 -29.148438 15.875 -28.640625 C 16.488281 -28.253906 16.960938 -28.0625 17.296875 -28.0625 C 17.554688 -28.0625 17.753906 -28.207031 17.890625 -28.5 C 18.035156 -28.789062 18.148438 -29.257812 18.234375 -29.90625 L 19.1875 -29.90625 C 19.050781 -28.28125 18.984375 -25.425781 18.984375 -21.34375 L 18.015625 -21.34375 C 17.847656 -23.601562 17.195312 -25.507812 16.0625 -27.0625 C 14.925781 -28.625 13.28125 -29.40625 11.125 -29.40625 C 9.613281 -29.40625 8.378906 -28.945312 7.421875 -28.03125 C 6.472656 -27.125 6 -25.957031 6 -24.53125 C 6 -23.46875 6.242188 -22.539062 6.734375 -21.75 C 7.222656 -20.96875 7.847656 -20.296875 8.609375 -19.734375 C 9.367188 -19.179688 10.445312 -18.46875 11.84375 -17.59375 L 13.0625 -16.84375 C 14.820312 -15.75 16.210938 -14.785156 17.234375 -13.953125 C 18.265625 -13.128906 19.085938 -12.1875 19.703125 -11.125 C 20.316406 -10.0625 20.625 -8.816406 20.625 -7.390625 C 20.625 -4.835938 19.78125 -2.867188 18.09375 -1.484375 C 16.414062 -0.0976562 14.289062 0.59375 11.71875 0.59375 C 10.375 0.59375 9.273438 0.453125 8.421875 0.171875 C 7.566406 -0.109375 6.75 -0.488281 5.96875 -0.96875 C 5.351562 -1.351562 4.875 -1.546875 4.53125 -1.546875 C 4.28125 -1.546875 4.082031 -1.398438 3.9375 -1.109375 C 3.800781 -0.816406 3.691406 -0.347656 3.609375 0.296875 L 2.640625 0.296875 C 2.753906 -1.242188 2.8125 -4.601562 2.8125 -9.78125 L 3.78125 -9.78125 C 3.976562 -6.957031 4.675781 -4.660156 5.875 -2.890625 C 7.082031 -1.128906 8.929688 -0.25 11.421875 -0.25 C 12.929688 -0.25 14.21875 -0.71875 15.28125 -1.65625 C 16.351562 -2.59375 16.890625 -3.988281 16.890625 -5.84375 C 16.890625 -7.40625 16.363281 -8.734375 15.3125 -9.828125 C 14.257812 -10.921875 12.597656 -12.15625 10.328125 -13.53125 C 8.679688 -14.53125 7.34375 -15.421875 6.3125 -16.203125 C 5.289062 -16.992188 4.457031 -17.941406 3.8125 -19.046875 C 3.175781 -20.148438 2.859375 -21.445312 2.859375 -22.9375 C 2.859375 -25.28125 3.613281 -27.078125 5.125 -28.328125 C 6.632812 -29.578125 8.507812 -30.203125 10.75 -30.203125 Z M 10.75 -30.203125 "/></g></g></g><path fill="#545454" d="M 496.578125 386.359375 C 495.6875 396.550781 498.933594 413.625 494.613281 422.175781 C 489.21875 432.871094 469.851562 435.167969 459.777344 431.503906 C 456.292969 430.222656 425.390625 397.113281 423.960938 393.71875 C 422.828125 391.035156 422.679688 389.277344 422.976562 386.359375 C 447.414062 386.179688 472.175781 387.371094 496.578125 386.359375 Z M 496.578125 386.359375 " fill-opacity="1" fill-rule="nonzero"/><path fill="#545454" d="M 147.253906 386.359375 C 146.777344 388.859375 148.058594 390.378906 147.253906 392.734375 C 146.449219 395.117188 115.550781 428.285156 113.40625 429.535156 C 104.046875 434.988281 82.773438 434.066406 76.605469 424.140625 C 70.734375 414.695312 75.261719 397.59375 72.671875 386.359375 C 96.570312 387.847656 123 386.179688 147.253906 386.359375 Z M 147.253906 386.359375 " fill-opacity="1" fill-rule="nonzero"/><path fill="#545454" d="M 517.4375 44.097656 C 517.4375 43.828125 517.320312 43.558594 517.199219 43.320312 C 510.703125 31.730469 502.835938 28.421875 491.453125 26.632812 C 459.839844 21.6875 406.859375 23.355469 360.132812 24.816406 C 339.453125 25.472656 319.90625 26.066406 304.203125 26.039062 C 304.203125 25.917969 304.234375 25.828125 304.261719 25.710938 C 304.261719 25.621094 304.292969 25.53125 304.320312 25.414062 C 304.320312 25.292969 304.351562 25.203125 304.382812 25.085938 C 304.382812 24.996094 304.382812 24.90625 304.410156 24.816406 C 304.410156 24.726562 304.410156 24.609375 304.441406 24.519531 C 304.441406 24.429688 304.441406 24.339844 304.472656 24.25 C 304.472656 24.160156 304.472656 24.042969 304.472656 23.953125 C 304.472656 23.863281 304.472656 23.773438 304.472656 23.683594 C 304.472656 23.59375 304.472656 23.476562 304.472656 23.386719 C 304.472656 23.296875 304.472656 23.207031 304.472656 23.117188 C 304.472656 23.027344 304.472656 22.9375 304.472656 22.820312 C 304.472656 22.730469 304.472656 22.640625 304.472656 22.550781 C 304.472656 22.460938 304.472656 22.371094 304.472656 22.285156 C 304.472656 22.195312 304.472656 22.105469 304.472656 22.015625 C 304.472656 21.925781 304.472656 21.835938 304.472656 21.746094 C 304.472656 21.65625 304.472656 21.566406 304.472656 21.507812 C 304.472656 21.417969 304.472656 21.328125 304.472656 21.242188 C 304.472656 21.152344 304.472656 21.089844 304.472656 21.003906 C 304.472656 20.914062 304.472656 20.824219 304.441406 20.734375 C 304.441406 20.644531 304.441406 20.585938 304.410156 20.496094 C 304.410156 20.40625 304.382812 20.316406 304.351562 20.226562 C 304.351562 20.136719 304.320312 20.078125 304.292969 19.988281 C 304.292969 19.898438 304.261719 19.808594 304.234375 19.722656 C 304.234375 19.632812 304.203125 19.570312 304.171875 19.484375 C 304.171875 19.394531 304.144531 19.304688 304.113281 19.242188 C 304.113281 19.183594 304.082031 19.09375 304.054688 19.035156 C 304.054688 18.945312 303.996094 18.855469 303.996094 18.796875 C 303.996094 18.738281 303.933594 18.648438 303.933594 18.589844 C 303.933594 18.5 303.875 18.441406 303.84375 18.351562 C 303.84375 18.289062 303.785156 18.199219 303.753906 18.140625 C 303.753906 18.050781 303.695312 17.992188 303.667969 17.902344 C 303.667969 17.84375 303.605469 17.753906 303.578125 17.695312 C 303.546875 17.605469 303.515625 17.546875 303.488281 17.457031 C 303.488281 17.398438 303.429688 17.335938 303.398438 17.246094 C 303.367188 17.160156 303.339844 17.097656 303.277344 17.007812 C 303.277344 16.949219 303.21875 16.890625 303.191406 16.832031 C 303.160156 16.742188 303.101562 16.679688 303.070312 16.59375 C 303.070312 16.53125 303.011719 16.472656 302.980469 16.441406 C 302.921875 16.355469 302.890625 16.265625 302.832031 16.175781 C 302.832031 16.175781 302.832031 16.144531 302.800781 16.117188 C 302.683594 15.875 302.5625 15.667969 302.414062 15.460938 C 302.414062 15.460938 302.386719 15.398438 302.355469 15.371094 C 302.296875 15.28125 302.234375 15.191406 302.207031 15.132812 C 302.175781 15.074219 302.148438 15.042969 302.117188 14.984375 C 302.058594 14.894531 301.996094 14.832031 301.96875 14.746094 C 301.9375 14.683594 301.910156 14.625 301.847656 14.59375 C 301.789062 14.507812 301.730469 14.445312 301.699219 14.355469 C 301.671875 14.296875 301.609375 14.238281 301.582031 14.207031 C 301.519531 14.148438 301.460938 14.058594 301.429688 14 C 301.402344 13.941406 301.34375 13.878906 301.3125 13.851562 C 301.253906 13.792969 301.191406 13.703125 301.132812 13.640625 C 301.105469 13.582031 301.042969 13.523438 301.015625 13.492188 C 300.953125 13.433594 300.894531 13.34375 300.835938 13.285156 C 300.804688 13.226562 300.746094 13.164062 300.714844 13.136719 C 300.65625 13.074219 300.597656 12.988281 300.539062 12.925781 C 300.507812 12.867188 300.449219 12.808594 300.417969 12.777344 C 300.359375 12.71875 300.300781 12.628906 300.238281 12.570312 C 300.179688 12.507812 300.148438 12.449219 300.089844 12.421875 C 300.03125 12.359375 299.972656 12.269531 299.910156 12.210938 C 299.851562 12.152344 299.824219 12.121094 299.761719 12.0625 C 299.703125 12.003906 299.644531 11.914062 299.585938 11.855469 C 299.523438 11.792969 299.496094 11.765625 299.433594 11.707031 C 299.375 11.644531 299.316406 11.554688 299.226562 11.496094 C 299.195312 11.4375 299.136719 11.40625 299.105469 11.347656 C 299.046875 11.289062 298.957031 11.199219 298.898438 11.140625 C 298.867188 11.078125 298.808594 11.050781 298.78125 10.988281 C 298.71875 10.929688 298.628906 10.839844 298.570312 10.78125 C 298.542969 10.75 298.480469 10.691406 298.453125 10.664062 C 298.363281 10.574219 298.300781 10.511719 298.214844 10.421875 C 298.183594 10.394531 298.152344 10.363281 298.125 10.335938 C 298.035156 10.246094 297.945312 10.15625 297.886719 10.066406 C 297.886719 10.066406 297.855469 10.035156 297.824219 10.007812 C 297.050781 9.203125 296.246094 8.398438 295.472656 7.59375 C 295.472656 7.59375 295.472656 7.59375 295.441406 7.5625 C 295.351562 7.445312 295.234375 7.355469 295.144531 7.234375 C 295.144531 7.234375 295.085938 7.175781 295.054688 7.144531 C 294.964844 7.054688 294.875 6.96875 294.785156 6.878906 C 294.757812 6.847656 294.695312 6.789062 294.667969 6.757812 C 294.609375 6.667969 294.519531 6.609375 294.457031 6.519531 C 294.429688 6.460938 294.371094 6.429688 294.339844 6.371094 C 294.28125 6.28125 294.191406 6.222656 294.132812 6.132812 C 294.070312 6.074219 294.042969 6.042969 293.980469 5.984375 C 293.921875 5.925781 293.863281 5.835938 293.804688 5.773438 C 293.742188 5.714844 293.714844 5.65625 293.652344 5.625 C 293.59375 5.566406 293.535156 5.476562 293.476562 5.417969 C 293.414062 5.359375 293.386719 5.296875 293.328125 5.238281 C 293.265625 5.179688 293.207031 5.089844 293.148438 5.03125 C 293.089844 4.972656 293.058594 4.910156 293 4.851562 C 292.9375 4.792969 292.878906 4.703125 292.820312 4.644531 C 292.761719 4.582031 292.730469 4.523438 292.671875 4.464844 C 292.609375 4.40625 292.550781 4.316406 292.492188 4.253906 C 292.433594 4.195312 292.402344 4.136719 292.34375 4.078125 C 292.285156 4.015625 292.222656 3.929688 292.195312 3.867188 C 292.164062 3.808594 292.105469 3.75 292.074219 3.6875 C 292.015625 3.628906 291.984375 3.539062 291.925781 3.480469 C 291.894531 3.421875 291.835938 3.363281 291.808594 3.300781 C 291.746094 3.242188 291.71875 3.152344 291.65625 3.09375 C 291.628906 3.035156 291.566406 2.972656 291.539062 2.914062 C 291.480469 2.824219 291.449219 2.765625 291.390625 2.675781 C 291.359375 2.617188 291.300781 2.558594 291.269531 2.496094 C 291.210938 2.40625 291.179688 2.347656 291.121094 2.257812 C 291.089844 2.199219 291.03125 2.140625 291.003906 2.082031 C 290.941406 1.992188 290.914062 1.929688 290.851562 1.84375 C 290.824219 1.78125 290.792969 1.722656 290.734375 1.664062 C 290.675781 1.574219 290.644531 1.484375 290.613281 1.425781 C 290.585938 1.363281 290.554688 1.304688 290.523438 1.246094 C 290.464844 1.15625 290.4375 1.066406 290.40625 0.976562 C 290.40625 0.917969 290.347656 0.859375 290.316406 0.800781 C 290.257812 0.710938 290.226562 0.589844 290.167969 0.5 C 290.167969 0.441406 290.109375 0.410156 290.109375 0.351562 C 290.046875 0.203125 289.988281 0.0546875 289.929688 -0.125 C 296.8125 -6.890625 303.367188 -13.949219 309.804688 -21.191406 C 313.023438 -24.828125 316.179688 -28.492188 319.339844 -32.15625 C 320.917969 -34.003906 322.5 -35.851562 324.046875 -37.699219 C 326.402344 -40.472656 328.757812 -43.242188 331.109375 -46.042969 C 332.332031 -47.472656 333.523438 -48.90625 334.746094 -50.335938 C 336.683594 -52.597656 338.621094 -54.863281 340.554688 -57.128906 C 342.136719 -58.976562 343.714844 -60.792969 345.324219 -62.613281 C 346.128906 -63.535156 346.902344 -64.429688 347.707031 -65.351562 C 354.113281 -72.59375 360.640625 -79.714844 367.464844 -86.480469 C 367.792969 -86.808594 368.179688 -87.136719 368.597656 -87.492188 C 368.894531 -87.730469 369.191406 -87.96875 369.519531 -88.238281 C 369.847656 -88.507812 369.847656 -88.507812 370.027344 -88.625 C 370.296875 -88.835938 370.5625 -89.011719 370.832031 -89.222656 C 371.277344 -89.550781 371.785156 -89.875 372.261719 -90.234375 C 372.46875 -90.382812 372.648438 -90.503906 372.859375 -90.652344 C 373.246094 -90.917969 373.664062 -91.1875 374.078125 -91.457031 C 374.167969 -91.515625 374.289062 -91.605469 374.378906 -91.664062 C 375.808594 -92.617188 377.207031 -93.542969 378.429688 -94.375 C 378.519531 -94.4375 378.609375 -94.496094 378.699219 -94.554688 C 378.878906 -94.675781 379.027344 -94.792969 379.203125 -94.882812 C 379.382812 -94.972656 379.53125 -95.089844 379.679688 -95.210938 C 380.574219 -95.835938 381.261719 -96.34375 381.707031 -96.730469 C 381.765625 -96.789062 381.828125 -96.820312 381.855469 -96.878906 C 382.003906 -97.027344 382.125 -97.175781 382.15625 -97.265625 C 384.597656 -102.898438 380.097656 -106.355469 375.449219 -106.714844 C 375.152344 -106.714844 374.882812 -106.742188 374.585938 -106.742188 C 372.203125 -106.742188 369.90625 -105.878906 368.597656 -104.0625 C 368.359375 -103.734375 368.148438 -103.347656 367.972656 -102.929688 C 367.316406 -101.289062 367.316406 -99.085938 368.386719 -96.285156 C 359.152344 -89.160156 318.027344 -38.355469 296.425781 -14.25 C 296.367188 -14.191406 296.335938 -14.160156 296.277344 -14.101562 C 294.996094 -12.667969 293.773438 -11.328125 292.640625 -10.105469 C 292.640625 -10.078125 292.582031 -10.046875 292.550781 -10.019531 C 291.597656 -9.003906 290.703125 -8.050781 289.898438 -7.1875 C 289.722656 -7.007812 289.542969 -6.828125 289.363281 -6.652344 C 289.035156 -6.324219 288.738281 -5.996094 288.4375 -5.695312 C 285.996094 -3.253906 284.269531 -1.792969 283.492188 -1.613281 C 282.660156 -1.4375 280.871094 -1.972656 278.785156 -2.6875 C 278.605469 -2.746094 278.398438 -2.804688 278.21875 -2.894531 C 278.097656 -2.925781 277.980469 -2.984375 277.859375 -3.015625 C 277.652344 -3.105469 277.414062 -3.164062 277.207031 -3.253906 C 277.085938 -3.3125 276.96875 -3.34375 276.816406 -3.402344 C 274.105469 -4.386719 271.277344 -5.457031 269.757812 -5.546875 C 267.460938 -5.695312 265.226562 -5.785156 263.050781 -5.785156 C 262.304688 -5.785156 261.53125 -5.785156 260.785156 -5.785156 C 259.414062 -5.757812 258.046875 -5.695312 256.703125 -5.578125 C 256.613281 -5.578125 256.496094 -5.578125 256.40625 -5.578125 C 255.066406 -5.488281 253.695312 -5.339844 252.355469 -5.191406 C 251.640625 -5.101562 250.953125 -5.011719 250.269531 -4.921875 C 245.382812 -4.207031 240.496094 -3.132812 235.398438 -1.675781 L 168.382812 -75.8125 L 152.46875 -93.421875 C 152.769531 -94.851562 152.886719 -96.195312 152.886719 -97.386719 C 152.796875 -103.105469 149.371094 -105.96875 145.707031 -106.535156 C 145.40625 -106.59375 145.082031 -106.625 144.78125 -106.625 C 144.335938 -106.625 143.859375 -106.625 143.410156 -106.625 C 143.113281 -106.625 142.816406 -106.5625 142.519531 -106.503906 C 141.476562 -106.296875 140.492188 -105.910156 139.65625 -105.371094 C 138.941406 -104.894531 138.316406 -104.300781 137.839844 -103.613281 C 137.691406 -103.375 137.542969 -103.136719 137.421875 -102.867188 C 137.304688 -102.601562 137.183594 -102.332031 137.09375 -102.0625 C 137.003906 -101.796875 136.945312 -101.5 136.886719 -101.171875 C 136.675781 -99.800781 136.914062 -98.191406 137.78125 -96.402344 C 137.988281 -95.957031 138.433594 -95.507812 139.03125 -95.03125 C 140.042969 -94.226562 141.5625 -93.394531 143.171875 -92.46875 C 143.382812 -92.351562 143.621094 -92.230469 143.828125 -92.082031 C 144.097656 -91.933594 144.363281 -91.785156 144.632812 -91.605469 C 145.46875 -91.128906 146.300781 -90.621094 147.105469 -90.117188 C 148.386719 -89.3125 149.578125 -88.445312 150.472656 -87.550781 C 163.675781 -74.5625 176.070312 -60.019531 188.464844 -45.386719 C 190.640625 -42.796875 192.847656 -40.234375 195.023438 -37.640625 C 197.734375 -34.453125 200.445312 -31.265625 203.1875 -28.105469 C 208.820312 -21.609375 214.511719 -15.203125 220.320312 -9.035156 C 220.378906 -8.945312 220.46875 -8.886719 220.53125 -8.796875 C 223.925781 -5.191406 227.382812 -1.675781 230.898438 1.753906 C 230.78125 1.84375 230.632812 1.929688 230.511719 2.019531 C 230.480469 2.019531 230.421875 2.082031 230.390625 2.109375 C 230.304688 2.167969 230.214844 2.230469 230.125 2.289062 C 230.066406 2.320312 230.035156 2.347656 229.976562 2.40625 C 229.886719 2.46875 229.796875 2.527344 229.738281 2.585938 C 229.675781 2.617188 229.617188 2.675781 229.589844 2.707031 C 229.5 2.765625 229.4375 2.824219 229.351562 2.886719 C 229.289062 2.914062 229.230469 2.972656 229.171875 3.003906 C 229.109375 3.0625 229.023438 3.125 228.960938 3.152344 C 228.902344 3.183594 228.84375 3.242188 228.785156 3.273438 C 228.722656 3.332031 228.632812 3.363281 228.574219 3.421875 C 228.515625 3.480469 228.457031 3.511719 228.394531 3.570312 C 228.335938 3.628906 228.246094 3.660156 228.1875 3.71875 C 228.128906 3.777344 228.066406 3.808594 227.980469 3.867188 C 227.917969 3.929688 227.859375 3.957031 227.769531 4.015625 C 227.710938 4.078125 227.621094 4.105469 227.5625 4.167969 C 227.503906 4.226562 227.441406 4.253906 227.351562 4.316406 C 227.292969 4.375 227.203125 4.40625 227.144531 4.464844 C 227.085938 4.523438 227.023438 4.554688 226.964844 4.613281 C 226.90625 4.671875 226.816406 4.730469 226.757812 4.792969 C 226.699219 4.851562 226.636719 4.882812 226.578125 4.941406 C 226.519531 5 226.429688 5.058594 226.371094 5.121094 C 226.308594 5.179688 226.25 5.210938 226.191406 5.269531 C 226.101562 5.328125 226.042969 5.386719 225.953125 5.449219 C 225.894531 5.476562 225.863281 5.535156 225.804688 5.566406 C 225.714844 5.625 225.65625 5.6875 225.566406 5.773438 C 225.535156 5.804688 225.476562 5.835938 225.445312 5.894531 C 225.355469 5.953125 225.265625 6.042969 225.179688 6.101562 C 225.179688 6.101562 225.117188 6.132812 225.089844 6.164062 C 224.613281 6.550781 224.164062 6.96875 223.71875 7.382812 C 223.71875 7.382812 223.71875 7.382812 223.6875 7.414062 C 223.597656 7.503906 223.480469 7.59375 223.390625 7.683594 C 223.390625 7.683594 223.332031 7.742188 223.300781 7.742188 C 223.210938 7.832031 223.121094 7.921875 223.03125 8.011719 C 223.003906 8.011719 222.972656 8.070312 222.941406 8.097656 C 222.855469 8.1875 222.765625 8.277344 222.675781 8.367188 C 222.644531 8.398438 222.617188 8.425781 222.585938 8.457031 C 222.496094 8.546875 222.40625 8.636719 222.316406 8.726562 C 222.289062 8.753906 222.257812 8.785156 222.226562 8.816406 C 222.136719 8.902344 222.050781 8.992188 221.988281 9.082031 C 221.960938 9.113281 221.929688 9.140625 221.898438 9.171875 C 221.8125 9.261719 221.75 9.351562 221.660156 9.441406 C 221.632812 9.46875 221.601562 9.5 221.574219 9.53125 C 221.484375 9.621094 221.421875 9.707031 221.332031 9.796875 C 221.332031 9.828125 221.273438 9.859375 221.246094 9.886719 C 221.15625 9.976562 221.09375 10.066406 221.007812 10.15625 C 221.007812 10.15625 220.945312 10.214844 220.917969 10.246094 C 220.828125 10.335938 220.738281 10.421875 220.679688 10.542969 C 220.679688 10.542969 220.648438 10.601562 220.617188 10.632812 C 220.53125 10.722656 220.441406 10.839844 220.378906 10.929688 C 220.378906 10.929688 220.351562 10.960938 220.320312 10.988281 C 220.230469 11.109375 220.140625 11.199219 220.050781 11.316406 C 220.050781 11.316406 220.050781 11.316406 220.050781 11.347656 C 219.277344 12.332031 218.59375 13.34375 217.996094 14.417969 C 217.9375 14.535156 217.847656 14.65625 217.789062 14.804688 C 217.789062 14.804688 217.789062 14.804688 217.789062 14.832031 C 217.726562 14.953125 217.667969 15.070312 217.609375 15.191406 C 217.609375 15.191406 217.609375 15.222656 217.609375 15.25 C 217.550781 15.371094 217.488281 15.488281 217.429688 15.609375 C 217.429688 15.609375 217.429688 15.636719 217.429688 15.667969 C 217.371094 15.789062 217.3125 15.90625 217.28125 16.027344 C 217.28125 16.027344 217.28125 16.054688 217.28125 16.085938 C 217.222656 16.203125 217.191406 16.324219 217.132812 16.441406 C 217.132812 16.441406 217.132812 16.472656 217.132812 16.503906 C 217.074219 16.621094 217.042969 16.742188 216.984375 16.859375 C 216.984375 16.859375 216.984375 16.890625 216.984375 16.917969 C 216.921875 17.039062 216.894531 17.15625 216.835938 17.308594 C 216.835938 17.308594 216.835938 17.308594 216.835938 17.335938 C 216.773438 17.457031 216.746094 17.605469 216.714844 17.722656 C 216.269531 19.125 216.058594 20.613281 216.058594 22.105469 C 216.058594 22.105469 216.058594 22.105469 216.058594 22.132812 C 216.058594 22.285156 216.058594 22.402344 216.058594 22.550781 C 216.058594 22.550781 216.058594 22.582031 216.058594 22.609375 C 216.058594 22.761719 216.058594 22.878906 216.058594 23.027344 C 216.058594 23.027344 216.058594 23.058594 216.058594 23.089844 C 216.058594 23.207031 216.058594 23.355469 216.089844 23.476562 C 216.089844 23.476562 216.089844 23.535156 216.089844 23.535156 C 216.089844 23.652344 216.121094 23.804688 216.148438 23.921875 C 216.148438 23.921875 216.148438 23.980469 216.148438 23.980469 C 216.148438 24.132812 216.207031 24.25 216.207031 24.398438 C 216.207031 24.398438 216.207031 24.429688 216.207031 24.457031 C 216.207031 24.609375 216.269531 24.726562 216.296875 24.875 C 216.296875 24.875 216.296875 24.90625 216.296875 24.933594 C 216.328125 25.085938 216.359375 25.234375 216.417969 25.351562 C 216.417969 25.351562 216.417969 25.351562 216.417969 25.382812 C 216.445312 25.53125 216.507812 25.679688 216.535156 25.828125 C 212.871094 25.828125 207.03125 25.828125 199.761719 25.800781 C 174.820312 25.710938 133.042969 25.5625 95.941406 26.1875 C 34.707031 27.199219 23.832031 29.671875 20.941406 31.429688 C 5.445312 40.847656 5.476562 59.382812 5.503906 75.742188 C 5.503906 78.78125 5.503906 81.640625 5.417969 84.414062 C 3.957031 129.824219 4.761719 176.160156 5.535156 220.976562 C 6.308594 266.003906 7.113281 312.578125 5.625 358.199219 C 5.625 358.316406 5.625 358.40625 5.625 358.527344 C 7.441406 372.414062 11.792969 380.636719 19.71875 385.136719 C 26.988281 389.25 36.4375 389.84375 48.386719 390.589844 L 49.429688 390.648438 C 56.996094 391.125 64.832031 391.273438 72.730469 391.273438 C 80.625 391.273438 88.882812 391.125 96.867188 390.945312 C 105.894531 390.769531 115.253906 390.589844 124.101562 390.648438 C 214.035156 391.273438 306.796875 391.273438 399.855469 390.648438 C 409.121094 390.589844 418.628906 390.707031 427.804688 390.855469 C 442.824219 391.066406 458.347656 391.273438 473.515625 390.648438 C 475.574219 390.558594 477.597656 390.5 479.566406 390.441406 C 500.722656 389.816406 517.46875 389.308594 521.492188 359.507812 C 521.492188 359.421875 521.492188 359.300781 521.492188 359.210938 C 520.507812 319.640625 521.015625 279.144531 521.550781 239.988281 C 522.386719 175.476562 523.277344 108.789062 517.378906 44.097656 Z M 517.4375 44.097656 " fill-opacity="1" fill-rule="nonzero"/><path fill="#000000" d="M 303.726562 27.976562 C 354.503906 28.125 445.507812 21.417969 491.15625 28.570312 C 502.660156 30.359375 509.542969 33.667969 515.5 44.273438 C 524.976562 148.152344 516.992188 254.53125 519.613281 359.269531 C 515.441406 390.023438 497.742188 387.699219 473.488281 388.710938 C 449.113281 389.726562 424.320312 388.535156 399.886719 388.710938 C 308.015625 389.335938 216 389.367188 124.132812 388.710938 C 99.875 388.535156 73.445312 390.203125 49.546875 388.710938 C 25.679688 387.25 11.257812 386.773438 7.5625 358.289062 C 10.570312 267.226562 4.402344 175.476562 7.351562 84.503906 C 7.917969 66.652344 4.640625 43.617188 22.074219 32.890625 C 33.21875 26.039062 191.058594 27.675781 217.339844 27.585938 C 246.125 27.5 274.910156 27.886719 303.695312 27.976562 Z M 303.726562 27.976562 " fill-opacity="1" fill-rule="nonzero"/><path fill="#545454" d="M 72.789062 391.273438 C 64.863281 391.273438 57.027344 391.125 49.488281 390.648438 L 48.445312 390.589844 C 36.496094 389.84375 27.050781 389.277344 19.777344 385.136719 C 11.824219 380.636719 7.472656 372.414062 5.683594 358.527344 C 5.683594 358.40625 5.683594 358.316406 5.683594 358.199219 C 7.203125 312.578125 6.371094 266.003906 5.59375 220.976562 C 4.820312 176.160156 4.015625 129.824219 5.476562 84.414062 C 5.566406 81.640625 5.566406 78.78125 5.566406 75.742188 C 5.566406 59.382812 5.503906 40.816406 21.121094 31.191406 C 23.980469 29.433594 34.855469 26.960938 96.121094 25.949219 C 133.222656 25.324219 174.96875 25.472656 199.9375 25.5625 C 207.714844 25.5625 213.855469 25.621094 217.429688 25.589844 C 235.160156 25.53125 253.160156 25.652344 270.589844 25.800781 C 281.464844 25.890625 292.730469 25.949219 303.816406 26.007812 C 319.578125 26.066406 339.304688 25.441406 360.222656 24.785156 C 406.945312 23.328125 459.929688 21.6875 491.542969 26.605469 C 502.925781 28.390625 510.792969 31.667969 517.289062 43.292969 C 517.410156 43.53125 517.5 43.796875 517.527344 44.066406 C 523.429688 108.757812 522.5625 175.476562 521.699219 239.960938 C 521.195312 279.113281 520.65625 319.609375 521.640625 359.183594 C 521.640625 359.269531 521.640625 359.390625 521.640625 359.480469 C 517.585938 389.25 500.871094 389.753906 479.714844 390.410156 C 477.746094 390.46875 475.722656 390.53125 473.664062 390.617188 C 458.496094 391.246094 442.972656 391.035156 427.953125 390.828125 C 418.777344 390.707031 409.269531 390.558594 400.003906 390.617188 C 306.945312 391.246094 214.152344 391.246094 124.25 390.617188 C 115.402344 390.558594 106.042969 390.738281 97.015625 390.917969 C 89.03125 391.066406 80.925781 391.246094 72.878906 391.246094 Z M 9.527344 358.167969 C 11.167969 370.625 14.921875 377.894531 21.65625 381.738281 C 28.152344 385.40625 37.179688 385.96875 48.652344 386.6875 L 49.695312 386.746094 C 64.773438 387.667969 81.074219 387.339844 96.835938 387.042969 C 105.894531 386.863281 115.253906 386.6875 124.160156 386.746094 C 214.0625 387.371094 306.824219 387.371094 399.886719 386.746094 C 409.210938 386.6875 418.71875 386.804688 427.925781 386.953125 C 442.882812 387.164062 458.347656 387.371094 473.425781 386.746094 C 475.511719 386.65625 477.539062 386.597656 479.503906 386.535156 C 489.785156 386.238281 498.664062 385.96875 505.160156 382.453125 C 512.015625 378.757812 515.980469 371.371094 517.675781 359.152344 C 516.695312 319.550781 517.230469 279.085938 517.738281 239.960938 C 518.570312 175.683594 519.433594 109.234375 513.625 44.871094 C 507.902344 34.859375 501.4375 32.148438 490.886719 30.507812 C 459.628906 25.621094 406.859375 27.261719 360.3125 28.71875 C 339.363281 29.375 319.609375 30 303.785156 29.941406 C 292.699219 29.910156 281.4375 29.824219 270.5625 29.734375 C 253.160156 29.613281 235.160156 29.464844 217.460938 29.523438 C 213.855469 29.523438 207.714844 29.523438 199.9375 29.496094 C 174.996094 29.40625 133.28125 29.257812 96.210938 29.882812 C 75.710938 30.210938 59.230469 30.746094 47.191406 31.460938 C 28.210938 32.59375 24.101562 33.996094 23.207031 34.53125 C 9.4375 42.992188 9.46875 59.652344 9.5 75.742188 C 9.5 78.8125 9.5 81.699219 9.410156 84.5625 C 7.949219 129.855469 8.753906 176.160156 9.527344 220.917969 C 10.304688 265.941406 11.109375 312.519531 9.617188 358.167969 Z M 9.527344 358.167969 " fill-opacity="1" fill-rule="nonzero"/><path fill="#545454" d="M 424.914062 329.800781 C 445.117188 333.050781 481.203125 325.480469 499.5 329.800781 C 500.574219 330.070312 502.210938 332.601562 501.945312 333.226562 C 499.859375 338.292969 434.300781 334.449219 424.914062 335.671875 L 498.992188 332.246094 Z M 424.914062 329.800781 " fill-opacity="1" fill-rule="nonzero"/><path fill="#545454" d="M 452.390625 277.804688 C 468.300781 277.355469 484.453125 280.066406 500.484375 277.804688 L 499.5 279.769531 L 429.832031 281.738281 L 500.960938 283.195312 C 486.300781 280.871094 435.464844 287.875 424.914062 283.671875 C 422.800781 282.839844 424.5 280.007812 424.914062 278.757812 C 434.09375 279.621094 443.332031 278.042969 452.390625 277.773438 Z M 452.390625 277.804688 " fill-opacity="1" fill-rule="nonzero"/><path fill="#545454" d="M 492.140625 234.625 C 494.671875 234.835938 498.277344 236.472656 501.46875 235.609375 L 500.484375 237.574219 L 424.914062 237.574219 C 423.097656 235.519531 430.726562 234.683594 431.292969 234.625 C 445.179688 233.046875 477.925781 233.464844 492.140625 234.625 Z M 492.140625 234.625 " fill-opacity="1" fill-rule="nonzero"/><path fill="#545454" d="M 424.914062 324.914062 C 450.304688 324.824219 475.660156 325.597656 500.960938 326.375 L 462.191406 327.835938 L 424.914062 324.882812 Z M 424.914062 324.914062 " fill-opacity="1" fill-rule="nonzero"/><path fill="#545454" d="M 424.914062 254.261719 L 501.945312 254.738281 C 499.410156 257.71875 494.078125 257.839844 490.648438 258.167969 C 470.507812 260.222656 446.609375 254.648438 425.898438 257.183594 L 424.914062 254.234375 Z M 424.914062 254.261719 " fill-opacity="1" fill-rule="nonzero"/><path fill="#545454" d="M 441.601562 273.871094 C 461.328125 272.945312 481.234375 275.957031 500.960938 274.347656 L 424.914062 276.789062 C 426.496094 274.226562 437.730469 274.019531 441.601562 273.839844 Z M 441.601562 273.871094 " fill-opacity="1" fill-rule="nonzero"/><path fill="#545454" d="M 424.914062 250.328125 L 501.945312 251.789062 C 493.003906 254.113281 482.246094 254.382812 473.007812 254.234375 C 463.027344 254.082031 435.015625 253.757812 426.882812 252.265625 C 425.480469 251.996094 423.457031 252.800781 424.914062 250.300781 Z M 424.914062 250.328125 " fill-opacity="1" fill-rule="nonzero"/><path fill="#545454" d="M 492.140625 234.625 C 477.925781 233.464844 445.179688 233.046875 431.292969 234.625 L 424.914062 231.675781 L 501.46875 231.675781 Z M 492.140625 234.625 " fill-opacity="1" fill-rule="nonzero"/><path fill="#545454" d="M 424.914062 239.542969 C 450.632812 239.839844 476.226562 240.703125 501.945312 240.019531 L 463.175781 242.460938 L 424.914062 239.511719 Z M 424.914062 239.542969 " fill-opacity="1" fill-rule="nonzero"/><path fill="#545454" d="M 424.914062 266.03125 C 450.304688 265.675781 475.632812 266.390625 500.960938 267.492188 L 463.175781 267.96875 L 424.914062 266.003906 Z M 424.914062 266.03125 " fill-opacity="1" fill-rule="nonzero"/><path fill="#545454" d="M 424.914062 246.394531 C 450.304688 246.128906 475.660156 247.378906 500.960938 247.855469 L 462.699219 248.839844 Z M 424.914062 246.394531 " fill-opacity="1" fill-rule="nonzero"/><path fill="#545454" d="M 424.914062 311.175781 C 450.15625 312.128906 475.839844 309.238281 500.960938 312.636719 L 462.191406 313.113281 L 424.914062 311.148438 Z M 424.914062 311.175781 " fill-opacity="1" fill-rule="nonzero"/><path fill="#545454" d="M 424.914062 259.148438 C 450.15625 260.101562 475.839844 257.210938 500.960938 260.609375 L 462.191406 261.085938 L 424.914062 259.121094 Z M 424.914062 259.148438 " fill-opacity="1" fill-rule="nonzero"/><path fill="#545454" d="M 424.914062 285.667969 C 450.242188 285.996094 475.632812 285.015625 500.960938 286.148438 L 463.175781 287.605469 L 424.914062 285.640625 Z M 424.914062 285.667969 " fill-opacity="1" fill-rule="nonzero"/><path fill="#545454" d="M 424.914062 289.574219 C 450.242188 289.902344 475.632812 288.917969 500.960938 290.050781 L 463.175781 291.511719 L 424.914062 289.542969 Z M 424.914062 289.574219 " fill-opacity="1" fill-rule="nonzero"/><path fill="#545454" d="M 424.914062 293.507812 C 450.242188 293.835938 475.632812 292.851562 500.960938 293.984375 L 463.175781 295.445312 L 424.914062 293.476562 Z M 424.914062 293.507812 " fill-opacity="1" fill-rule="nonzero"/><path fill="#545454" d="M 424.914062 307.242188 C 450.242188 307.570312 475.632812 306.589844 500.960938 307.71875 L 463.175781 309.179688 L 424.914062 307.214844 Z M 424.914062 307.242188 " fill-opacity="1" fill-rule="nonzero"/><path fill="#545454" d="M 424.914062 315.109375 C 450.242188 315.4375 475.632812 314.453125 500.960938 315.585938 L 463.175781 317.046875 L 424.914062 315.082031 Z M 424.914062 315.109375 " fill-opacity="1" fill-rule="nonzero"/><path fill="#545454" d="M 424.914062 319.015625 C 450.242188 319.339844 475.632812 318.359375 500.960938 319.492188 L 463.175781 320.949219 L 424.914062 318.984375 Z M 424.914062 319.015625 " fill-opacity="1" fill-rule="nonzero"/><path fill="#545454" d="M 424.914062 269.964844 C 449.917969 270.175781 474.945312 270.144531 499.976562 271.425781 L 462.191406 271.902344 L 424.914062 269.9375 Z M 424.914062 269.964844 " fill-opacity="1" fill-rule="nonzero"/><path fill="#545454" d="M 424.914062 300.390625 C 450.242188 300.925781 475.722656 299.050781 500.960938 301.851562 L 463.175781 302.328125 L 424.914062 300.359375 Z M 424.914062 300.390625 " fill-opacity="1" fill-rule="nonzero"/><path fill="#545454" d="M 428.847656 296.457031 L 500.960938 297.917969 L 431.796875 298.421875 Z M 428.847656 296.457031 " fill-opacity="1" fill-rule="nonzero"/><path fill="#545454" d="M 500.484375 242.492188 C 502.152344 242.730469 502.925781 243.476562 501.46875 244.457031 C 495.179688 248.691406 436.121094 242.371094 424.4375 243.980469 L 500.484375 242.523438 Z M 500.484375 242.492188 " fill-opacity="1" fill-rule="nonzero"/><path fill="#545454" d="M 424.914062 303.308594 L 496.042969 304.769531 C 476.019531 303.101562 445.746094 308.675781 426.851562 305.246094 C 425.453125 304.980469 423.425781 305.785156 424.886719 303.28125 Z M 424.914062 303.308594 " fill-opacity="1" fill-rule="nonzero"/><path fill="#545454" d="M 499.5 262.097656 C 502.332031 262.457031 500.453125 264.78125 499.5 265.050781 C 485.644531 268.832031 454.773438 261.652344 439.160156 263.589844 L 499.5 262.128906 Z M 499.5 262.097656 " fill-opacity="1" fill-rule="nonzero"/><path fill="#a6a6a6" d="M 203.632812 59.949219 C 245.261719 59.324219 297.289062 60.574219 338.082031 67.785156 C 354.113281 70.617188 373.097656 71.835938 383.613281 86.4375 C 399.199219 108.101562 396.695312 253.011719 393.03125 284.65625 C 389.367188 316.300781 389.574219 328.222656 375.359375 339.007812 C 346.039062 361.269531 170.171875 357.632812 128.066406 353.132812 C 106.550781 350.839844 63.941406 348.125 50.949219 329.769531 C 36.316406 309.121094 37.867188 178.425781 40.339844 148.242188 C 41.742188 131.285156 43.738281 92.996094 55.449219 81.523438 C 73.328125 64 175.324219 60.367188 203.632812 59.949219 Z M 203.632812 59.949219 " fill-opacity="1" fill-rule="nonzero"/><path fill="#545454" d="M 222.257812 357.632812 C 182.804688 357.632812 145.4375 356.113281 127.976562 354.234375 C 126.160156 354.027344 124.191406 353.847656 122.105469 353.640625 C 111.050781 352.535156 95.882812 351.015625 82.324219 347.679688 C 66.027344 343.6875 55.476562 338.054688 50.082031 330.425781 C 42.007812 319.015625 39.148438 276.371094 38.164062 242.613281 C 36.972656 201.816406 38.132812 162.125 39.296875 148.152344 C 39.417969 146.75 39.535156 145.230469 39.65625 143.59375 C 40.371094 134.234375 41.382812 121.390625 43.558594 109.441406 C 46.179688 94.929688 49.84375 85.546875 54.730469 80.746094 C 62.570312 73.058594 86.40625 67.1875 125.5625 63.226562 C 161.171875 59.621094 196.871094 58.933594 203.664062 58.847656 C 241.597656 58.28125 295.769531 59.171875 338.320312 66.710938 C 340.316406 67.070312 342.316406 67.398438 344.429688 67.726562 C 358.792969 70.019531 375.09375 72.640625 384.539062 85.785156 C 393.210938 97.820312 395.921875 144.636719 396.667969 181.761719 C 397.53125 224.523438 396.039062 268.507812 394.164062 284.777344 C 393.984375 286.386719 393.804688 288.054688 393.597656 289.8125 C 391.78125 306.707031 389.304688 329.832031 376.046875 339.902344 C 359.894531 352.179688 302.148438 356.082031 256.554688 357.214844 C 245.230469 357.484375 233.640625 357.632812 222.257812 357.632812 Z M 203.632812 59.949219 L 203.632812 61.050781 C 196.871094 61.140625 161.289062 61.855469 125.742188 65.429688 C 87.628906 69.273438 63.582031 75.117188 56.222656 82.328125 C 45.761719 92.578125 43.171875 125.890625 41.800781 143.769531 C 41.679688 145.410156 41.5625 146.960938 41.441406 148.359375 C 40.28125 162.277344 39.148438 201.847656 40.339844 242.582031 C 41.710938 289.871094 45.792969 320.625 51.84375 329.175781 C 63.464844 345.5625 100.292969 349.257812 122.285156 351.464844 C 124.371094 351.671875 126.367188 351.882812 128.183594 352.058594 C 150.621094 354.472656 206.046875 356.261719 256.464844 355.011719 C 285.816406 354.296875 310.609375 352.65625 330.128906 350.152344 C 353.042969 347.234375 368.058594 343.179688 374.675781 338.144531 C 387.160156 328.667969 389.574219 306.082031 391.363281 289.574219 C 391.542969 287.816406 391.71875 286.117188 391.929688 284.507812 C 393.804688 268.328125 395.296875 224.464844 394.433594 181.792969 C 393.390625 129.734375 389.21875 96.09375 382.722656 87.035156 C 373.8125 74.640625 358.675781 72.195312 344.042969 69.839844 C 342.015625 69.511719 339.902344 69.1875 337.875 68.828125 C 295.5 61.320312 241.507812 60.425781 203.632812 60.992188 L 203.632812 59.890625 Z M 203.632812 59.949219 " fill-opacity="1" fill-rule="nonzero"/><path fill="#fdfdfd" d="M 287.546875 76.636719 C 304.859375 76.992188 359.152344 79.527344 368.507812 94.78125 C 376.613281 108.011719 383.316406 188.410156 380.277344 204.679688 C 377.238281 220.949219 371.933594 216.417969 368.507812 202.710938 C 361.863281 176.132812 361.175781 106.792969 339.574219 91.324219 C 335.105469 88.136719 287.574219 76.605469 287.574219 76.605469 Z M 287.546875 76.636719 " fill-opacity="1" fill-rule="nonzero"/><path fill="#000000" d="M 80.476562 88.40625 C 81.429688 88.316406 82.445312 88.464844 83.429688 88.40625 C 80.269531 92.605469 72.9375 92.84375 69.214844 97.734375 C 62.570312 106.433594 59.082031 166.863281 58.425781 181.136719 C 57.355469 204.230469 58.695312 227.324219 56.96875 250.328125 C 55.625 210.132812 53.421875 163.972656 59.410156 124.222656 C 61.226562 112.273438 65.398438 89.777344 80.507812 88.40625 Z M 80.476562 88.40625 " fill-opacity="1" fill-rule="nonzero"/><path fill="#a6a6a6" d="M 458.289062 50.144531 C 475.394531 50.203125 499.769531 55.03125 501.945312 76.160156 C 504.683594 102.351562 504.179688 177.742188 501.945312 204.707031 C 501.316406 212.335938 497.5625 224.882812 488.683594 226.789062 C 483.796875 227.832031 439.515625 225.476562 434.71875 223.839844 C 429.058594 221.902344 422.828125 210.28125 421.457031 204.707031 C 417.675781 189.152344 416.691406 84.890625 419.492188 68.320312 C 422.414062 51.070312 444.222656 50.113281 458.257812 50.175781 Z M 458.289062 50.144531 " fill-opacity="1" fill-rule="nonzero"/><path fill="#a6a6a6" d="M 482.8125 228.160156 C 469.078125 228.160156 438.414062 226.28125 434.363281 224.882812 C 428.191406 222.765625 421.816406 210.785156 420.414062 204.976562 C 418.359375 196.511719 417.285156 164.273438 416.929688 136.917969 C 416.601562 109.117188 416.929688 77.082031 418.417969 68.144531 C 419.761719 60.15625 425.125 54.644531 434.390625 51.722656 C 441.898438 49.339844 450.691406 49.070312 458.289062 49.070312 C 465.828125 49.070312 476.792969 50.027344 486.152344 54.257812 C 496.3125 58.875 502.003906 66.207031 503.046875 76.039062 C 505.757812 102.023438 505.339844 177.203125 503.046875 204.796875 C 502.867188 207.03125 502.121094 212.8125 499.410156 218.386719 C 496.820312 223.660156 493.183594 226.96875 488.953125 227.859375 C 488 228.070312 485.824219 228.160156 482.84375 228.160156 Z M 457.574219 51.246094 C 450.332031 51.246094 442.078125 51.574219 435.078125 53.78125 C 426.554688 56.460938 421.847656 61.257812 420.625 68.46875 C 419.34375 75.980469 418.746094 104.078125 419.164062 136.859375 C 419.582031 171.066406 420.921875 197.617188 422.589844 204.441406 C 423.902344 209.832031 429.953125 221.007812 435.136719 222.796875 C 437.164062 223.480469 448.097656 224.492188 461.804688 225.210938 C 475.453125 225.953125 486.449219 226.132812 488.535156 225.6875 C 497.085938 223.839844 500.363281 211.085938 500.929688 204.589844 C 503.226562 177.085938 503.640625 102.144531 500.929688 76.246094 C 499.976562 67.21875 494.734375 60.484375 485.316406 56.222656 C 475.8125 51.902344 464.339844 51.246094 458.347656 51.21875 C 458.109375 51.21875 457.871094 51.21875 457.632812 51.21875 Z M 457.574219 51.246094 " fill-opacity="1" fill-rule="nonzero"/><path fill="#545454" d="M 483.5 102.144531 C 483.5 102.882812 483.460938 103.621094 483.390625 104.355469 C 483.316406 105.09375 483.207031 105.824219 483.066406 106.550781 C 482.921875 107.273438 482.742188 107.992188 482.527344 108.699219 C 482.3125 109.40625 482.0625 110.101562 481.777344 110.785156 C 481.496094 111.46875 481.179688 112.136719 480.832031 112.789062 C 480.484375 113.441406 480.101562 114.078125 479.691406 114.691406 C 479.28125 115.304688 478.839844 115.898438 478.371094 116.472656 C 477.902344 117.042969 477.40625 117.589844 476.882812 118.113281 C 476.359375 118.636719 475.8125 119.132812 475.242188 119.601562 C 474.667969 120.070312 474.074219 120.511719 473.460938 120.921875 C 472.84375 121.335938 472.210938 121.714844 471.558594 122.0625 C 470.90625 122.410156 470.238281 122.726562 469.554688 123.011719 C 468.871094 123.292969 468.175781 123.542969 467.46875 123.757812 C 466.761719 123.972656 466.042969 124.152344 465.316406 124.296875 C 464.59375 124.441406 463.863281 124.546875 463.125 124.621094 C 462.390625 124.695312 461.652344 124.730469 460.910156 124.730469 C 460.171875 124.730469 459.433594 124.695312 458.699219 124.621094 C 457.960938 124.546875 457.230469 124.441406 456.503906 124.296875 C 455.78125 124.152344 455.0625 123.972656 454.355469 123.757812 C 453.648438 123.542969 452.953125 123.292969 452.269531 123.011719 C 451.585938 122.726562 450.917969 122.410156 450.265625 122.0625 C 449.613281 121.714844 448.976562 121.335938 448.363281 120.921875 C 447.746094 120.511719 447.15625 120.070312 446.582031 119.601562 C 446.011719 119.132812 445.464844 118.636719 444.941406 118.113281 C 444.417969 117.589844 443.921875 117.042969 443.453125 116.472656 C 442.980469 115.898438 442.542969 115.304688 442.132812 114.691406 C 441.71875 114.078125 441.339844 113.441406 440.992188 112.789062 C 440.644531 112.136719 440.328125 111.46875 440.042969 110.785156 C 439.761719 110.101562 439.511719 109.40625 439.296875 108.699219 C 439.082031 107.992188 438.902344 107.273438 438.757812 106.550781 C 438.613281 105.824219 438.503906 105.09375 438.433594 104.355469 C 438.359375 103.621094 438.324219 102.882812 438.324219 102.144531 C 438.324219 101.402344 438.359375 100.664062 438.433594 99.929688 C 438.503906 99.191406 438.613281 98.460938 438.757812 97.734375 C 438.902344 97.011719 439.082031 96.292969 439.296875 95.585938 C 439.511719 94.878906 439.761719 94.183594 440.042969 93.5 C 440.328125 92.816406 440.644531 92.148438 440.992188 91.496094 C 441.339844 90.84375 441.71875 90.210938 442.132812 89.59375 C 442.542969 88.980469 442.980469 88.386719 443.453125 87.8125 C 443.921875 87.242188 444.417969 86.695312 444.941406 86.171875 C 445.464844 85.648438 446.011719 85.152344 446.582031 84.683594 C 447.15625 84.214844 447.746094 83.773438 448.363281 83.363281 C 448.976562 82.953125 449.613281 82.570312 450.265625 82.222656 C 450.917969 81.875 451.585938 81.558594 452.269531 81.273438 C 452.953125 80.992188 453.648438 80.742188 454.355469 80.527344 C 455.0625 80.3125 455.78125 80.132812 456.503906 79.988281 C 457.230469 79.84375 457.960938 79.738281 458.699219 79.664062 C 459.433594 79.59375 460.171875 79.554688 460.910156 79.554688 C 461.652344 79.554688 462.390625 79.59375 463.125 79.664062 C 463.863281 79.738281 464.59375 79.84375 465.316406 79.988281 C 466.042969 80.132812 466.761719 80.3125 467.46875 80.527344 C 468.175781 80.742188 468.871094 80.992188 469.554688 81.273438 C 470.238281 81.558594 470.90625 81.875 471.558594 82.222656 C 472.210938 82.570312 472.84375 82.953125 473.460938 83.363281 C 474.074219 83.773438 474.667969 84.214844 475.242188 84.683594 C 475.8125 85.152344 476.359375 85.648438 476.882812 86.171875 C 477.40625 86.695312 477.902344 87.242188 478.371094 87.8125 C 478.839844 88.386719 479.28125 88.980469 479.691406 89.59375 C 480.101562 90.210938 480.484375 90.84375 480.832031 91.496094 C 481.179688 92.148438 481.496094 92.816406 481.777344 93.5 C 482.0625 94.183594 482.3125 94.878906 482.527344 95.585938 C 482.742188 96.292969 482.921875 97.011719 483.066406 97.734375 C 483.207031 98.460938 483.316406 99.191406 483.390625 99.929688 C 483.460938 100.664062 483.5 101.402344 483.5 102.144531 Z M 483.5 102.144531 " fill-opacity="1" fill-rule="nonzero"/><path fill="#545454" d="M 485.226562 169.574219 C 485.226562 170.316406 485.191406 171.054688 485.117188 171.789062 C 485.046875 172.527344 484.9375 173.257812 484.792969 173.984375 C 484.648438 174.707031 484.46875 175.425781 484.253906 176.132812 C 484.039062 176.839844 483.789062 177.535156 483.507812 178.21875 C 483.222656 178.902344 482.910156 179.570312 482.558594 180.222656 C 482.210938 180.875 481.832031 181.507812 481.421875 182.125 C 481.007812 182.738281 480.570312 183.332031 480.101562 183.90625 C 479.628906 184.476562 479.132812 185.023438 478.609375 185.546875 C 478.089844 186.070312 477.539062 186.566406 476.96875 187.035156 C 476.398438 187.503906 475.804688 187.945312 475.1875 188.355469 C 474.574219 188.765625 473.941406 189.148438 473.289062 189.496094 C 472.636719 189.84375 471.96875 190.160156 471.285156 190.445312 C 470.601562 190.726562 469.90625 190.976562 469.195312 191.191406 C 468.488281 191.40625 467.773438 191.585938 467.046875 191.730469 C 466.320312 191.875 465.589844 191.980469 464.855469 192.054688 C 464.117188 192.125 463.378906 192.164062 462.640625 192.164062 C 461.898438 192.164062 461.160156 192.125 460.425781 192.054688 C 459.691406 191.980469 458.957031 191.875 458.234375 191.730469 C 457.507812 191.585938 456.792969 191.40625 456.082031 191.191406 C 455.375 190.976562 454.679688 190.726562 453.996094 190.445312 C 453.3125 190.160156 452.644531 189.84375 451.992188 189.496094 C 451.339844 189.148438 450.707031 188.765625 450.089844 188.355469 C 449.476562 187.945312 448.882812 187.503906 448.3125 187.035156 C 447.738281 186.566406 447.191406 186.070312 446.667969 185.546875 C 446.144531 185.023438 445.648438 184.476562 445.179688 183.90625 C 444.710938 183.332031 444.269531 182.738281 443.859375 182.125 C 443.449219 181.507812 443.070312 180.875 442.71875 180.222656 C 442.371094 179.570312 442.054688 178.902344 441.773438 178.21875 C 441.488281 177.535156 441.238281 176.839844 441.027344 176.132812 C 440.8125 175.425781 440.632812 174.707031 440.488281 173.984375 C 440.34375 173.257812 440.234375 172.527344 440.160156 171.789062 C 440.089844 171.054688 440.054688 170.316406 440.054688 169.574219 C 440.054688 168.835938 440.089844 168.097656 440.160156 167.363281 C 440.234375 166.625 440.34375 165.894531 440.488281 165.167969 C 440.632812 164.445312 440.8125 163.726562 441.027344 163.019531 C 441.238281 162.3125 441.488281 161.617188 441.773438 160.933594 C 442.054688 160.25 442.371094 159.582031 442.71875 158.929688 C 443.070312 158.277344 443.449219 157.640625 443.859375 157.027344 C 444.269531 156.414062 444.710938 155.820312 445.179688 155.246094 C 445.648438 154.675781 446.144531 154.128906 446.667969 153.605469 C 447.191406 153.082031 447.738281 152.585938 448.3125 152.117188 C 448.882812 151.648438 449.476562 151.207031 450.089844 150.796875 C 450.707031 150.382812 451.339844 150.003906 451.992188 149.65625 C 452.644531 149.308594 453.3125 148.992188 453.996094 148.707031 C 454.679688 148.425781 455.375 148.175781 456.082031 147.960938 C 456.792969 147.746094 457.507812 147.566406 458.234375 147.421875 C 458.957031 147.277344 459.691406 147.171875 460.425781 147.097656 C 461.160156 147.023438 461.898438 146.988281 462.640625 146.988281 C 463.378906 146.988281 464.117188 147.023438 464.855469 147.097656 C 465.589844 147.171875 466.320312 147.277344 467.046875 147.421875 C 467.773438 147.566406 468.488281 147.746094 469.195312 147.960938 C 469.90625 148.175781 470.601562 148.425781 471.285156 148.707031 C 471.96875 148.992188 472.636719 149.308594 473.289062 149.65625 C 473.941406 150.003906 474.574219 150.382812 475.1875 150.796875 C 475.804688 151.207031 476.398438 151.648438 476.96875 152.117188 C 477.539062 152.585938 478.089844 153.082031 478.609375 153.605469 C 479.132812 154.128906 479.628906 154.675781 480.101562 155.246094 C 480.570312 155.820312 481.007812 156.414062 481.421875 157.027344 C 481.832031 157.640625 482.210938 158.277344 482.558594 158.929688 C 482.910156 159.582031 483.222656 160.25 483.507812 160.933594 C 483.789062 161.617188 484.039062 162.3125 484.253906 163.019531 C 484.46875 163.726562 484.648438 164.445312 484.792969 165.167969 C 484.9375 165.894531 485.046875 166.625 485.117188 167.363281 C 485.191406 168.097656 485.226562 168.835938 485.226562 169.574219 Z M 485.226562 169.574219 " fill-opacity="1" fill-rule="nonzero"/><path fill="#fdfdfd" d="M 463.773438 101.128906 L 463.773438 95.675781 C 463.773438 93.769531 462.222656 92.21875 460.316406 92.21875 C 458.410156 92.21875 456.859375 93.769531 456.859375 95.675781 L 456.859375 101.128906 C 455.367188 102.203125 454.414062 103.929688 454.414062 105.898438 C 454.414062 109.144531 457.039062 111.765625 460.285156 111.765625 C 463.535156 111.765625 466.15625 109.144531 466.15625 105.898438 C 466.15625 102.648438 465.203125 102.203125 463.710938 101.128906 Z M 463.773438 101.128906 " fill-opacity="1" fill-rule="nonzero"/><path fill="#fdfdfd" d="M 465.976562 168.5625 L 465.976562 163.109375 C 465.976562 161.203125 464.429688 159.652344 462.519531 159.652344 C 460.613281 159.652344 459.0625 161.203125 459.0625 163.109375 L 459.0625 168.5625 C 457.574219 169.636719 456.621094 171.363281 456.621094 173.332031 C 456.621094 176.578125 459.242188 179.199219 462.492188 179.199219 C 465.738281 179.199219 468.359375 176.578125 468.359375 173.332031 C 468.359375 170.082031 467.40625 169.636719 465.917969 168.5625 Z M 465.976562 168.5625 " fill-opacity="1" fill-rule="nonzero"/></svg>